<svg width="18" height="18" viewBox="0 0 18 18" fill="none" xmlns="http://www.w3.org/2000/svg">
<path fill-rule="evenodd" clip-rule="evenodd" d="M9 0.875C4.5125 0.875 0.875 4.5125 0.875 9C0.875 13.4875 4.5125 17.125 9 17.125C13.4875 17.125 17.125 13.4875 17.125 9C17.125 4.5125 13.4875 0.875 9 0.875ZM12.5667 9.44167C12.6837 9.32448 12.7494 9.16563 12.7494 9C12.7494 8.83437 12.6837 8.67552 12.5667 8.55833L10.0667 6.05833C10.0094 5.99693 9.94045 5.94768 9.86378 5.91352C9.78712 5.87936 9.70435 5.86099 9.62043 5.85951C9.53652 5.85803 9.45316 5.87346 9.37533 5.9049C9.29751 5.93633 9.22682 5.98312 9.16747 6.04247C9.10812 6.10182 9.06133 6.17251 9.0299 6.25034C8.99846 6.32816 8.98303 6.41152 8.98451 6.49543C8.98599 6.57935 9.00436 6.66212 9.03852 6.73878C9.07268 6.81545 9.12193 6.88445 9.18333 6.94167L10.6167 8.375H5.875C5.70924 8.375 5.55027 8.44085 5.43306 8.55806C5.31585 8.67527 5.25 8.83424 5.25 9C5.25 9.16576 5.31585 9.32473 5.43306 9.44194C5.55027 9.55915 5.70924 9.625 5.875 9.625H10.6167L9.18333 11.0583C9.12193 11.1156 9.07268 11.1846 9.03852 11.2612C9.00436 11.3379 8.98599 11.4206 8.98451 11.5046C8.98303 11.5885 8.99846 11.6718 9.0299 11.7497C9.06133 11.8275 9.10812 11.8982 9.16747 11.9575C9.22682 12.0169 9.29751 12.0637 9.37533 12.0951C9.45316 12.1265 9.53652 12.142 9.62043 12.1405C9.70435 12.139 9.78712 12.1206 9.86378 12.0865C9.94045 12.0523 10.0094 12.0031 10.0667 11.9417L12.5667 9.44167Z" fill="white"/>
</svg>
