<svg width="357" height="357" viewBox="0 0 357 357" fill="none" xmlns="http://www.w3.org/2000/svg">
<path d="M315.91 0H41.09C18.3966 0 0 18.3966 0 41.09V315.91C0 338.603 18.3966 357 41.09 357H315.91C338.603 357 357 338.603 357 315.91V41.09C357 18.3966 338.603 0 315.91 0Z" fill="#303749"/>
<path d="M291.271 185.572C284.098 181.799 276.846 177.893 269.849 174.135C261.993 169.919 253.946 165.557 245.867 161.356C244.311 160.668 243.02 159.555 242.167 158.166C241.314 156.778 240.94 155.181 241.096 153.589C241.159 140.187 241.159 126.785 241.096 113.383V95.2255C241.107 94.4371 241.166 93.6498 241.271 92.8674C241.271 92.4989 241.366 92.101 241.398 91.6735C241.437 91.3196 241.565 90.9791 241.773 90.6796C241.98 90.38 242.26 90.1298 242.591 89.9492C242.931 89.7827 243.311 89.6956 243.696 89.6956C244.081 89.6956 244.461 89.7827 244.801 89.9492L245.962 90.4503C246.741 90.7892 247.409 91.084 248.03 91.4083L254.836 95.0781C259.703 97.7163 264.728 100.443 269.753 102.963C271.386 103.671 272.744 104.827 273.643 106.274C274.542 107.722 274.939 109.391 274.779 111.054C274.683 116.169 274.699 121.371 274.699 126.427C274.699 130.553 274.699 134.68 274.699 138.807C274.58 139.413 274.693 140.039 275.018 140.577C275.343 141.115 275.86 141.531 276.48 141.754C280.075 143.567 283.653 145.483 287.12 147.34C289.187 148.46 291.271 149.581 293.354 150.671C293.481 150.745 293.64 150.804 293.799 150.877C293.799 150.288 293.799 149.743 293.799 149.212C293.799 143.936 293.799 138.645 293.799 133.368C293.799 121.961 293.799 110.17 293.879 98.5711C294.014 97.7051 293.836 96.8221 293.372 96.0597C292.909 95.2973 292.187 94.6982 291.318 94.3559C270.342 83.3169 251.56 73.3096 234.067 63.7886C233.303 63.2687 232.376 62.9982 231.429 63.0195C230.482 63.0409 229.569 63.3528 228.834 63.9065C215.857 70.9514 202.61 78.0111 189.792 84.8497L187.661 85.9845C187.041 86.3088 186.405 86.692 185.784 87.0752C183.776 88.5777 181.35 89.523 178.787 89.8018C176.29 89.8018 174.127 88.4459 172.203 87.2078C171.551 86.7952 170.899 86.3677 170.263 86.0288L162.597 81.9462C151.465 76.0509 139.967 69.8755 128.708 63.7444C128.022 63.2615 127.184 63 126.322 63C125.461 63 124.623 63.2615 123.937 63.7444C106.602 73.1327 88.2975 82.9042 66.2874 94.5181C65.54 94.7908 64.9121 95.2867 64.5031 95.9274C64.0941 96.5681 63.9273 97.3169 64.0291 98.0553C64.1723 111.408 64.1723 125.026 64.0291 138.527C63.9411 139.267 64.1235 140.014 64.5473 140.647C64.9711 141.281 65.6118 141.764 66.3669 142.02C74.5412 146.323 82.6995 150.656 90.842 155.019C98.078 158.88 105.33 162.757 112.598 166.589C113.959 167.183 115.099 168.14 115.872 169.337C116.645 170.533 117.017 171.916 116.939 173.309C116.828 178.762 116.844 184.319 116.939 189.684C116.939 192.381 116.939 195.078 116.939 197.76C116.921 198.5 116.857 199.238 116.748 199.971C116.748 200.354 116.637 200.782 116.589 201.268C116.548 201.627 116.411 201.97 116.192 202.268C115.973 202.567 115.678 202.81 115.333 202.978C114.992 203.152 114.609 203.243 114.22 203.243C113.83 203.243 113.447 203.152 113.107 202.978L111.357 202.123C110.228 201.563 109.194 201.047 108.177 200.516L91.4781 191.57C82.5617 186.795 73.6347 182.025 64.6971 177.259L64.1723 176.994V255.962C64.1723 256.198 64.1723 256.448 64.1723 256.684C64.2114 257.322 64.2114 257.962 64.1723 258.6C64.0632 259.047 64.136 259.515 64.3767 259.915C64.6174 260.315 65.009 260.618 65.4763 260.767C67.0667 261.577 68.657 262.447 70.2473 263.302C70.963 263.7 71.6786 264.097 72.4102 264.481L85.1327 271.334C97.8553 278.187 111.182 285.277 124.159 292.321C124.803 292.769 125.59 293.004 126.394 292.988C127.199 292.972 127.974 292.706 128.596 292.233C135.371 288.534 142.194 284.864 149.016 281.238C157.063 276.935 165.38 272.498 173.491 267.974C175.137 266.936 177.087 266.391 179.077 266.412C181.068 266.433 183.004 267.019 184.623 268.092C192.289 272.292 200.145 276.492 207.747 280.56C214.903 284.377 222.298 288.342 229.534 292.351C230.182 292.792 230.971 293.02 231.775 292.999C232.578 292.977 233.351 292.708 233.971 292.233C252.18 282.402 271.725 271.909 291.223 261.621C292.149 261.226 292.915 260.567 293.407 259.739C293.899 258.912 294.092 257.96 293.958 257.023C293.815 233.869 293.815 211.334 293.958 190.037C294.092 189.124 293.903 188.194 293.418 187.389C292.933 186.584 292.18 185.946 291.271 185.572ZM116.732 144.673C116.73 145.055 116.621 145.43 116.414 145.761C116.208 146.092 115.912 146.367 115.556 146.559C115.195 146.76 114.783 146.867 114.363 146.869C113.95 146.867 113.544 146.766 113.186 146.574L109.115 144.437L100.972 140.133L95.9947 137.421C93.1639 135.948 90.2377 134.267 87.3274 132.779C86.0829 132.247 85.0372 131.385 84.3235 130.301C83.6098 129.217 83.2604 127.961 83.3198 126.692C83.4311 121.533 83.3993 116.272 83.3198 111.187V109.625C83.2162 108.493 83.4598 107.357 84.0225 106.348C84.5853 105.339 85.4442 104.498 86.5004 103.921C91.494 101.298 96.4771 98.6644 101.449 96.0214L112.089 90.3913C112.634 90.1328 113.241 90.0061 113.854 90.0229H114.156C114.482 90.0003 114.81 90.0396 115.119 90.1384C115.428 90.2373 115.712 90.3935 115.953 90.5977C116.192 90.8063 116.382 91.0574 116.514 91.336C116.645 91.6146 116.714 91.9149 116.717 92.2189L116.732 144.673ZM116.971 250.789C116.971 254.562 116.971 258.345 116.971 262.137C116.947 262.642 116.834 263.14 116.637 263.611C116.637 263.832 116.478 264.112 116.367 264.466C116.275 264.792 116.104 265.094 115.867 265.35C115.63 265.605 115.333 265.807 114.999 265.94C114.708 266.056 114.394 266.116 114.077 266.117C113.671 266.111 113.273 266.015 112.916 265.837L109.306 264.053L102.181 260.383L95.4221 256.773C92.6073 255.299 89.7765 253.736 86.9457 252.248C85.844 251.758 84.9176 250.985 84.2775 250.021C83.6373 249.056 83.3103 247.941 83.3357 246.809C83.3357 238.04 83.3357 229.271 83.3357 220.28V211.319C83.3384 210.951 83.4409 210.59 83.6337 210.268C83.8265 209.947 84.1035 209.675 84.4391 209.478C84.7748 209.282 85.1584 209.166 85.5547 209.143C85.951 209.12 86.3473 209.189 86.7072 209.345L87.9635 209.86C88.739 210.16 89.4933 210.504 90.2218 210.892L99.1117 215.638C103.771 218.129 108.415 220.619 113.091 223.007C114.267 223.503 115.262 224.304 115.956 225.314C116.651 226.324 117.014 227.499 117.003 228.696C116.971 236.095 116.971 243.449 116.971 250.818V250.789ZM188.424 109.536C188.327 108.41 188.589 107.281 189.177 106.291C189.765 105.301 190.653 104.492 191.732 103.965C197.277 101.018 202.806 98.07 208.319 95.1223L216.907 90.5387C217.403 90.2961 217.941 90.1364 218.497 90.0671L218.927 89.9786C219.275 89.9036 219.638 89.9017 219.987 89.9731C220.336 90.0445 220.664 90.1874 220.946 90.3913C221.229 90.5957 221.458 90.8574 221.615 91.1562C221.772 91.4551 221.854 91.7833 221.853 92.1157V144.201C221.855 144.564 221.758 144.922 221.572 145.241C221.386 145.56 221.116 145.831 220.787 146.029C220.46 146.23 220.084 146.354 219.692 146.387C219.301 146.42 218.907 146.363 218.545 146.22C218.147 146.058 217.782 145.911 217.432 145.793C216.68 145.538 215.951 145.227 215.253 144.864C212.406 143.39 209.576 141.917 206.729 140.31C201.958 137.76 197.187 135.196 192.416 132.676C191.174 132.138 190.133 131.271 189.422 130.185C188.712 129.099 188.365 127.843 188.424 126.574C188.52 120.738 188.472 114.739 188.424 109.566V109.536ZM169.738 241.636V246.426C169.858 247.484 169.645 248.552 169.126 249.501C168.607 250.45 167.803 251.24 166.812 251.776C161.357 254.606 155.934 257.48 150.511 260.339L141.176 265.262C140.724 265.494 140.213 265.611 139.697 265.601H138.631C138.32 265.591 138.014 265.525 137.73 265.406C137.447 265.286 137.191 265.117 136.979 264.906C136.766 264.695 136.6 264.447 136.491 264.177C136.381 263.907 136.331 263.62 136.341 263.331V183.331C136.338 182.966 136.434 182.606 136.62 182.284C136.806 181.962 137.077 181.689 137.407 181.489C137.738 181.288 138.117 181.167 138.512 181.136C138.906 181.105 139.302 181.166 139.665 181.312L140.858 181.784C141.668 182.081 142.459 182.42 143.227 182.801L151.831 187.399C156.602 189.934 161.373 192.484 166.144 194.975C167.31 195.478 168.287 196.293 168.95 197.314C169.613 198.336 169.932 199.517 169.865 200.708C169.738 214.356 169.738 228.224 169.738 241.636ZM222.044 250.877C222.044 254.591 222.044 258.32 222.044 262.034C222.025 262.537 221.923 263.034 221.742 263.508C221.742 263.685 221.614 263.876 221.551 264.127C221.468 264.426 221.317 264.706 221.109 264.947C220.9 265.189 220.639 265.386 220.342 265.527C220.008 265.688 219.637 265.773 219.261 265.778C218.962 265.78 218.665 265.73 218.386 265.63L217.416 265.306C216.576 265.053 215.762 264.733 214.983 264.348C209.941 261.695 204.916 258.998 199.891 256.316L192.098 252.159C191.034 251.768 190.117 251.095 189.461 250.226C188.806 249.356 188.439 248.327 188.408 247.266C188.408 238.276 188.408 229.271 188.408 220.118V211.054C188.408 210.684 188.508 210.32 188.7 209.995C188.891 209.67 189.169 209.396 189.506 209.197C189.845 209 190.233 208.884 190.633 208.861C191.033 208.838 191.432 208.908 191.796 209.064L193.084 209.61C193.895 209.949 194.674 210.273 195.422 210.671L204.216 215.387C208.892 217.893 213.578 220.393 218.275 222.889C219.45 223.387 220.44 224.195 221.122 225.213C221.803 226.23 222.146 227.411 222.107 228.608C222.091 236.036 222.091 243.449 222.091 250.877H222.044ZM222.044 190.14C222.044 192.263 222.044 194.385 222.044 196.507V200.929C222.045 201.299 221.944 201.663 221.752 201.988C221.561 202.313 221.283 202.587 220.946 202.786C220.564 203.005 220.124 203.122 219.674 203.125C219.321 203.125 218.972 203.05 218.656 202.904L217.336 202.329C216.573 202.005 216.016 201.769 215.492 201.489L193.02 189.448L140.396 161.298C139.036 160.699 137.893 159.746 137.108 158.555C136.322 157.364 135.929 155.987 135.975 154.592C136.039 140.354 136.039 126.107 135.975 111.85V94.1643C135.988 93.5961 136.046 93.0295 136.15 92.4694C136.15 92.1894 136.246 91.8651 136.293 91.5114C136.338 91.1516 136.477 90.8076 136.7 90.51C136.923 90.2123 137.221 89.9703 137.569 89.8055C137.917 89.6406 138.303 89.558 138.694 89.5651C139.085 89.5722 139.467 89.6687 139.808 89.846L143.609 91.8357L151.561 96.0066C153.151 96.8467 154.741 97.7015 156.252 98.5711C159.162 100.178 162.184 101.828 165.206 103.317C166.654 103.92 167.865 104.924 168.674 106.191C169.482 107.457 169.849 108.924 169.722 110.391C169.722 114.385 169.722 118.483 169.722 122.432C169.722 127.444 169.722 132.631 169.627 137.76C169.492 138.679 169.692 139.614 170.197 140.415C170.701 141.217 171.48 141.838 172.41 142.182C179.232 145.749 186.118 149.433 192.782 152.985C200.479 157.112 208.462 161.371 216.35 165.468C218.258 166.27 219.845 167.609 220.884 169.294C221.924 170.98 222.363 172.926 222.139 174.857C221.996 180 222.044 185.218 222.091 190.14H222.044ZM274.827 241.872V245.763C275.02 247.009 274.808 248.279 274.219 249.413C273.63 250.547 272.69 251.493 271.519 252.13C266.08 254.93 260.561 257.863 255.25 260.693L247.091 265.026C246.589 265.278 246.055 265.471 245.501 265.601C245.248 265.652 244.999 265.716 244.754 265.792C244.526 265.852 244.29 265.881 244.054 265.881C243.425 265.881 242.823 265.649 242.378 265.238C241.934 264.826 241.684 264.267 241.684 263.685V183.331C241.683 182.97 241.779 182.614 241.962 182.295C242.145 181.975 242.411 181.703 242.735 181.502C243.059 181.301 243.432 181.177 243.82 181.141C244.208 181.105 244.6 181.159 244.96 181.297C245.278 181.415 245.565 181.533 245.851 181.622C246.564 181.866 247.26 182.151 247.934 182.477L256.14 186.898C260.911 189.462 265.921 192.101 270.835 194.636C272.193 195.243 273.324 196.213 274.081 197.422C274.838 198.63 275.186 200.021 275.081 201.415C274.811 214.842 274.842 228.578 274.874 241.872H274.827Z" fill="#EB9500"/>
</svg>
