<svg width="999" height="158" viewBox="0 0 999 158" fill="none" xmlns="http://www.w3.org/2000/svg">
<g clip-path="url(#clip0_32_9)">
<path d="M12.91 92C14.58 98.71 20.59 103.5 29 103.5C37.13 103.5 43 99.82 43 93.59C43 89.03 39.66 85.69 32.76 83.24L22.76 79.79C6.45 74.34 3.67 64.44 3.67 57.87C3.67 44.18 15.25 35.73 29.49 35.73C42.49 35.73 51.75 42.51 55.31 53.53L43.31 58.53C40.64 50.63 35.19 48.4 29.51 48.4C23.17 48.4 17.94 51.52 17.94 57.64C17.94 60.31 18.72 64.32 27.17 67.32L37.17 70.99C52.3 75.78 57.09 85.35 57.17 92.99C57.17 107.99 44.37 115.99 29.35 115.99C14.13 116.07 2.11 107.5 0 94.93L12.91 92Z" fill="white"/>
<path d="M120.74 105.28C113.17 113.73 103.94 116.07 95.2601 116.07C75.0001 116.07 62.8701 102.94 62.8701 86.9201C62.8701 70.4501 75.8701 57.3101 93.7001 57.3101C108.94 57.3101 123.3 66.8801 123.3 88.5901H76.5601C76.5601 97.4901 83.7901 104.5 95.9201 104.5C102.92 104.5 108.17 101.94 112.92 97.6001L120.74 105.28ZM77.2301 79.3501H109.28C107.16 70.6701 99.4801 68.2201 93.7001 68.2201C87.6901 68.2201 80.1201 70.6701 77.2301 79.3501Z" fill="white"/>
<path d="M144.78 71.0001C146.67 61.4301 154.12 57.3101 160.13 57.3101C161.72 57.336 163.297 57.5989 164.81 58.0901V71.5601C162.731 70.841 160.549 70.4661 158.35 70.4501C153.35 70.4501 145 73.2301 145 88.8101V114.81H131.31V58.5401H144.78V71.0001Z" fill="white"/>
<path d="M165.36 58.54H180.16L195.16 99.6L210.29 58.54H225.09L202.39 114.85H188.06L165.36 58.54Z" fill="white"/>
<path d="M239.14 33.17C240.313 33.1259 241.483 33.3169 242.581 33.7319C243.679 34.1468 244.683 34.7773 245.534 35.5861C246.385 36.3949 247.065 37.3658 247.535 38.4416C248.005 39.5173 248.255 40.6762 248.27 41.85C248.27 46.74 244.27 50.42 239.14 50.42C237.983 50.4595 236.829 50.2655 235.748 49.8498C234.668 49.4341 233.681 48.8051 232.849 48.0003C232.016 47.1956 231.354 46.2314 230.902 45.1653C230.449 44.0993 230.216 42.9531 230.216 41.795C230.216 40.637 230.449 39.4908 230.902 38.4247C231.354 37.3587 232.016 36.3945 232.849 35.5897C233.681 34.7849 234.668 34.1559 235.748 33.7402C236.829 33.3245 237.983 33.1306 239.14 33.17ZM232.24 114.85V58.54H245.93V114.85H232.24Z" fill="white"/>
<path d="M286.77 57.3101C292.22 57.3101 299.77 58.5401 308.47 64.8801L302.13 74.6701C297.95 71.3592 292.773 69.5585 287.44 69.5601C276.53 69.5601 268.85 76.5601 268.85 86.6901C268.85 96.8201 276.53 103.83 287.44 103.83C292.765 103.776 297.925 101.977 302.13 98.7101L308.47 108.39C299.79 114.85 292.22 116.07 286.77 116.07C267.19 116.07 255.06 103.39 255.06 87.0701C255.06 70.3401 266.85 57.3101 286.77 57.3101Z" fill="white"/>
<path d="M368.9 105.28C361.33 113.73 352.09 116.07 343.41 116.07C323.16 116.07 311.03 102.94 311.03 86.9201C311.03 70.4501 324.03 57.3101 341.86 57.3101C357.1 57.3101 371.46 66.8801 371.46 88.5901H324.72C324.72 97.4901 331.95 104.5 344.08 104.5C351.08 104.5 356.32 101.94 361.08 97.6001L368.9 105.28ZM325.39 79.3501H357.44C355.32 70.6701 347.64 68.2201 341.86 68.2201C335.85 68.2201 328.28 70.6701 325.39 79.3501Z" fill="white"/>
<path d="M591.79 92C593.46 98.68 599.47 103.47 607.93 103.47C616.05 103.47 621.93 99.7899 621.93 93.5599C621.93 88.9999 618.59 85.6599 611.69 83.2099L601.69 79.76C585.33 74.31 582.55 64.41 582.55 57.84C582.55 44.15 594.12 35.7 608.37 35.7C621.37 35.7 630.62 42.4799 634.18 53.5L622.18 58.5C619.51 50.6 614.06 48.3699 608.39 48.3699C602.04 48.3699 596.81 51.49 596.81 57.61C596.81 60.28 597.59 64.29 606.05 67.29L616.05 70.9599C631.19 75.7499 635.97 85.3199 636.05 92.9599C636.05 107.96 623.26 115.96 608.23 115.96C592.99 115.96 580.97 107.39 578.85 94.82L591.79 92Z" fill="white"/>
<path d="M653.89 58.54L669.25 97.15L683.94 58.54H699.29L664.35 140.33H650.88L662.35 111.51L638.42 58.51L653.89 58.54Z" fill="white"/>
<path d="M705.75 58.5401H719.43V68.0001C723 60.6501 729.67 57.3101 737.69 57.3101C751.69 57.3101 758.49 67.4401 758.49 83.6901V114.85H744.81V83.8501C744.81 74.0601 740.69 68.9401 733.9 68.9401C725.9 68.9401 719.43 74.9401 719.43 86.7401V114.9H705.75V58.5401Z" fill="white"/>
<path d="M824.48 105.28C816.92 113.73 807.68 116.07 799 116.07C778.75 116.07 766.62 102.94 766.62 86.9201C766.62 70.4501 779.62 57.3101 797.44 57.3101C812.69 57.3101 827.04 66.8801 827.04 88.5901H780.3C780.3 97.4901 787.54 104.5 799.67 104.5C806.67 104.5 811.91 101.94 816.67 97.6001L824.48 105.28ZM781 79.3501H813C810.89 70.6701 803.21 68.2201 797.42 68.2201C791.43 68.2201 783.87 70.6701 781 79.3501Z" fill="white"/>
<path d="M848.52 71.0001C850.41 61.4301 857.87 57.3101 863.88 57.3101C865.467 57.337 867.04 57.5999 868.55 58.0901V71.5601C866.475 70.8403 864.296 70.4654 862.1 70.4501C857.1 70.4501 848.74 73.2301 848.74 88.8101V114.81H835.05V58.5401H848.52V71.0001Z" fill="white"/>
<path d="M898.15 57.3099C901.88 57.2164 905.576 58.0401 908.913 59.7087C912.25 61.3774 915.127 63.8398 917.29 66.8799V58.5399H931V108.73C931 131.99 918.87 141.56 901.06 141.56C888.82 141.56 881.15 138.11 875.58 133.56C877.47 130 879.25 126.44 881.03 122.88C886.199 127.173 892.681 129.569 899.4 129.67C909.08 129.67 917.31 125.22 917.31 113.09V106.5C913.42 112.4 905.96 116.07 898.06 116.07C881.37 116.07 870.46 102.94 870.46 86.4699C870.44 70.5599 880.9 57.3099 898.15 57.3099ZM900.82 104.61C911.28 104.61 917.63 97.1499 917.63 87.1399C917.63 77.1299 911.28 68.7799 900.49 68.7799C890.14 68.7799 884.24 76.8999 884.24 86.5799C884.24 96.5999 890.58 104.61 900.82 104.61Z" fill="white"/>
<path d="M952.9 58.54L968.26 97.15L983 58.54H998.3L963.36 140.33H949.9L961.36 111.51L937.43 58.51L952.9 58.54Z" fill="white"/>
<path d="M549 83.8199C544.45 81.2399 539.86 78.5799 535.43 75.9999C530.43 73.1199 525.32 70.1399 520.24 67.2699C519.259 66.7975 518.446 66.0368 517.91 65.0895C517.374 64.1423 517.14 63.0538 517.24 61.9699C517.29 52.8099 517.24 43.6599 517.24 34.4999V22.0899C517.24 21.5499 517.3 21.0299 517.36 20.4799C517.36 20.2299 517.36 19.9599 517.44 19.6699C517.458 19.4267 517.536 19.1917 517.667 18.9858C517.798 18.7799 517.977 18.6096 518.19 18.4899C518.407 18.3793 518.647 18.3217 518.89 18.3217C519.133 18.3217 519.373 18.3793 519.59 18.4899L520.33 18.8399C520.82 19.0699 521.24 19.2699 521.64 19.4999L526 21.9999C529.09 23.7999 532.27 25.6599 535.45 27.3899C536.484 27.8728 537.345 28.6628 537.914 29.6524C538.483 30.642 538.733 31.783 538.63 32.9199C538.57 36.4099 538.63 39.9799 538.63 43.4199C538.63 46.2399 538.63 49.0599 538.63 51.8699C538.558 52.2826 538.631 52.7075 538.837 53.0722C539.043 53.4369 539.369 53.7188 539.76 53.8699C542.03 55.1099 544.3 56.4199 546.49 57.6899L550.44 59.9599L550.72 60.0999C550.72 59.6999 550.77 59.3299 550.77 58.9699V48.0899C550.77 40.2999 550.77 32.2399 550.77 24.3199C550.857 23.7283 550.745 23.1244 550.452 22.6032C550.159 22.0819 549.701 21.6728 549.15 21.4399C535.87 13.8899 524 7.05994 512.9 0.549939C512.416 0.197184 511.83 0.0138266 511.231 0.0282904C510.633 0.0427542 510.056 0.254231 509.59 0.629939C501.37 5.44994 492.98 10.2699 484.87 14.9399L483.52 15.7199C483.13 15.9399 482.73 16.2099 482.33 16.4699C481.056 17.4849 479.526 18.1285 477.91 18.3299C476.366 18.1843 474.905 17.5623 473.73 16.5499C473.32 16.2699 472.91 15.9799 472.51 15.7499L467.66 12.9999C460.61 8.89994 453.33 4.70994 446.2 0.529939C445.762 0.185244 445.222 -0.00219727 444.665 -0.00219727C444.108 -0.00219727 443.567 0.185244 443.13 0.529939C432.13 6.94994 420.56 13.6299 406.64 21.5299C406.154 21.7157 405.747 22.0619 405.485 22.5112C405.223 22.9604 405.122 23.4857 405.2 23.9999C405.29 33.1199 405.29 42.4199 405.2 51.6399C405.148 52.1433 405.267 52.6495 405.537 53.0774C405.807 53.5053 406.213 53.8302 406.69 53.9999C411.863 56.9399 417.027 59.8999 422.18 62.8799C426.76 65.5199 431.35 68.1699 435.96 70.7799C436.819 71.1893 437.537 71.8435 438.024 72.6603C438.512 73.4771 438.747 74.4199 438.7 75.3699C438.64 79.0999 438.64 82.8999 438.65 86.5699C438.65 88.4099 438.65 90.2499 438.65 92.0899C438.643 92.592 438.603 93.0931 438.53 93.5899C438.53 93.8599 438.46 94.1499 438.43 94.4799C438.405 94.7251 438.32 94.9603 438.182 95.1644C438.044 95.3686 437.858 95.5354 437.64 95.6499C437.424 95.7681 437.181 95.83 436.935 95.83C436.688 95.83 436.446 95.7681 436.23 95.6499L435.12 95.0599C434.4 94.6799 433.75 94.3299 433.12 93.9599L422.54 87.8499L405.59 78.0799L405.25 77.8999V131.9C405.25 132.06 405.25 132.23 405.25 132.4C405.274 132.833 405.274 133.267 405.25 133.7C405.185 134.004 405.233 134.321 405.383 134.593C405.534 134.865 405.778 135.073 406.07 135.18C407.12 135.73 408.13 136.33 409.07 136.92L410.44 137.72L418.53 142.4C426.64 147.08 435.03 151.93 443.25 156.74C443.656 157.045 444.153 157.204 444.66 157.193C445.168 157.182 445.657 157.002 446.05 156.68C450.35 154.15 454.67 151.68 458.98 149.17C464.08 146.23 469.35 143.17 474.48 140.17C475.523 139.451 476.764 139.071 478.031 139.084C479.298 139.096 480.531 139.5 481.56 140.24C486.41 143.12 491.39 145.99 496.2 148.76C500.73 151.38 505.41 154.08 509.99 156.76C510.399 157.064 510.899 157.222 511.409 157.207C511.919 157.193 512.409 157.007 512.8 156.68C524.34 149.97 536.71 142.79 549.04 135.76C549.628 135.493 550.114 135.043 550.425 134.477C550.737 133.911 550.858 133.26 550.77 132.62C550.67 116.8 550.67 101.4 550.77 86.8599C550.847 86.2295 550.716 85.5911 550.396 85.0422C550.077 84.4933 549.586 84.0641 549 83.8199ZM438.49 55.8699C438.49 56.2678 438.332 56.6493 438.051 56.9306C437.769 57.2119 437.388 57.3699 436.99 57.3699C436.729 57.3734 436.473 57.3042 436.25 57.1699L433.67 55.7099C431.88 54.7099 430.19 53.7099 428.51 52.7699L425.36 50.9199C423.57 49.8599 421.72 48.7699 419.87 47.7499C419.081 47.3879 418.419 46.7984 417.968 46.0571C417.517 45.3158 417.299 44.4566 417.34 43.5899C417.41 40.0699 417.39 36.4699 417.34 32.9999V31.9299C417.268 31.1584 417.419 30.3825 417.773 29.6934C418.127 29.0043 418.671 28.4307 419.34 28.0399C422.5 26.2399 425.657 24.4366 428.81 22.6299L435.54 18.7799C435.887 18.6072 436.272 18.5246 436.66 18.5399H436.85C437.056 18.5244 437.264 18.551 437.46 18.618C437.656 18.685 437.836 18.7912 437.99 18.9299C438.14 19.0733 438.26 19.2455 438.343 19.4362C438.425 19.6269 438.468 19.8322 438.47 20.0399L438.49 55.8699ZM438.64 128.39C438.64 130.98 438.64 133.56 438.64 136.15C438.623 136.492 438.552 136.83 438.43 137.15C438.43 137.3 438.33 137.48 438.26 137.73C438.2 137.952 438.091 138.157 437.94 138.331C437.79 138.504 437.601 138.64 437.39 138.73C437.205 138.802 437.008 138.839 436.81 138.84C436.554 138.841 436.303 138.776 436.08 138.65L433.83 137.4C432.26 136.52 430.77 135.69 429.29 134.84C427.81 133.99 426.44 133.2 425.01 132.38C423.22 131.38 421.44 130.31 419.64 129.29C418.947 128.952 418.364 128.423 417.96 127.766C417.557 127.109 417.348 126.351 417.36 125.58C417.36 119.58 417.36 113.58 417.36 107.47V101.35C417.359 101.099 417.422 100.852 417.543 100.631C417.664 100.411 417.838 100.225 418.05 100.09C418.264 99.9543 418.509 99.8742 418.762 99.8568C419.015 99.8393 419.269 99.8851 419.5 99.9899C419.78 100.13 420.04 100.25 420.29 100.35C420.81 100.59 421.29 100.79 421.72 101.05L427.35 104.3C430.29 106 433.24 107.71 436.2 109.39C436.944 109.726 437.574 110.273 438.013 110.962C438.452 111.651 438.68 112.453 438.67 113.27C438.65 118.34 438.65 123.36 438.64 128.39ZM483.88 31.8899C483.825 31.12 483.994 30.3505 484.367 29.6745C484.739 28.9984 485.3 28.4447 485.98 28.0799C489.49 26.0799 492.98 24.0799 496.48 22.0799C498.293 21.0266 500.107 19.9799 501.92 18.9399C502.233 18.7761 502.571 18.6647 502.92 18.6099L503.2 18.5599C503.42 18.5039 503.65 18.4986 503.873 18.5445C504.096 18.5905 504.305 18.6864 504.485 18.8251C504.665 18.9638 504.811 19.1417 504.913 19.3452C505.014 19.5487 505.068 19.7726 505.07 19.9999V55.5899C505.07 55.9878 504.912 56.3693 504.631 56.6506C504.349 56.9319 503.968 57.0899 503.57 57.0899C503.376 57.0966 503.182 57.0661 503 56.9999L502.29 56.7099C501.816 56.5307 501.355 56.3202 500.91 56.0799L495.52 52.9699C492.52 51.2199 489.47 49.4699 486.42 47.7499C485.635 47.3808 484.976 46.7883 484.526 46.0465C484.076 45.3048 483.855 44.4468 483.89 43.5799C484 39.5199 483.92 35.4199 483.88 31.8899ZM472.09 122.13V125.39C472.167 126.112 472.033 126.841 471.705 127.489C471.377 128.136 470.868 128.675 470.24 129.04C466.793 130.98 463.353 132.933 459.92 134.9C457.92 136.02 455.98 137.15 454.01 138.26C453.724 138.424 453.399 138.507 453.07 138.5H452.77H452.39C451.992 138.5 451.611 138.342 451.329 138.061C451.048 137.779 450.89 137.398 450.89 137V82.2799C450.89 82.03 450.952 81.784 451.072 81.5644C451.191 81.3447 451.363 81.1584 451.573 81.0222C451.783 80.8861 452.023 80.8045 452.272 80.7849C452.521 80.7653 452.772 80.8083 453 80.9099L453.76 81.2299C454.271 81.4308 454.769 81.6646 455.25 81.9299L460.71 85.0599C463.71 86.7999 466.71 88.5399 469.76 90.2399C470.496 90.5863 471.113 91.144 471.532 91.8421C471.95 92.5402 472.151 93.3471 472.11 94.1599C472.07 103.48 472.08 113 472.09 122.13ZM505.2 128.44C505.2 130.98 505.2 133.52 505.2 136.06C505.188 136.401 505.124 136.738 505.01 137.06C505.01 137.18 504.93 137.32 504.89 137.49C504.839 137.702 504.745 137.9 504.612 138.072C504.479 138.245 504.312 138.387 504.12 138.49C503.906 138.598 503.669 138.653 503.43 138.65C503.245 138.651 503.062 138.617 502.89 138.55L502.27 138.33C501.739 138.157 501.224 137.939 500.73 137.68C497.537 135.86 494.35 134.03 491.17 132.19L486.24 129.35C485.564 129.083 484.982 128.623 484.565 128.027C484.149 127.432 483.918 126.726 483.9 126C483.9 119.86 483.9 113.72 483.9 107.46V101.27C483.899 101.017 483.963 100.768 484.084 100.546C484.206 100.324 484.382 100.136 484.595 100.001C484.809 99.8648 485.053 99.7853 485.306 99.7695C485.559 99.7536 485.811 99.802 486.04 99.9099L486.85 100.28C487.37 100.52 487.85 100.74 488.34 101.01L493.9 104.22C496.9 105.94 499.83 107.65 502.81 109.35C503.551 109.694 504.176 110.247 504.606 110.942C505.036 111.637 505.253 112.443 505.23 113.26C505.203 118.307 505.193 123.367 505.2 128.44ZM505.2 86.9399C505.2 88.3899 505.2 89.8399 505.2 91.2899V94.2899C505.202 94.5439 505.139 94.7941 505.016 95.0165C504.893 95.239 504.716 95.4261 504.5 95.5599C504.285 95.6949 504.039 95.7731 503.785 95.7871C503.532 95.8011 503.279 95.7505 503.05 95.6399L502.22 95.2499C501.74 95.0299 501.39 94.8599 501.06 94.6699L486.83 86.4499C475.717 80.0299 464.607 73.6166 453.5 67.2099C452.64 66.8003 451.918 66.1489 451.423 65.3355C450.927 64.5221 450.679 63.5819 450.71 62.6299C450.75 52.8966 450.75 43.1733 450.71 33.4599V21.3999C450.717 21.0111 450.754 20.6233 450.82 20.2399C450.82 20.0399 450.88 19.8299 450.91 19.5799C450.939 19.3341 451.028 19.0992 451.17 18.8962C451.311 18.6932 451.501 18.5284 451.722 18.4166C451.942 18.3047 452.188 18.2492 452.435 18.255C452.682 18.2608 452.925 18.3278 453.14 18.4499L455.54 19.8099C457.26 20.8099 458.92 21.7099 460.54 22.6599C461.54 23.2299 462.54 23.8199 463.54 24.4099C465.38 25.4999 467.29 26.6399 469.2 27.6499C470.119 28.0592 470.887 28.7438 471.4 29.6091C471.912 30.4745 472.143 31.4777 472.06 32.4799C472.06 35.2199 472.06 38.0099 472.06 40.7099C472.06 44.1399 472.06 47.7099 471.99 51.1799C471.893 51.8153 472.014 52.4649 472.333 53.0226C472.653 53.5802 473.152 54.0129 473.75 54.2499C478.07 56.6899 482.43 59.2499 486.65 61.6399C491.53 64.4499 496.58 67.3699 501.57 70.1599C502.778 70.7061 503.784 71.6197 504.443 72.7707C505.102 73.9216 505.381 75.2512 505.24 76.5699C505.14 79.9999 505.17 83.5399 505.2 86.9399ZM538.62 122.28V124.94C538.734 125.799 538.588 126.672 538.201 127.447C537.814 128.223 537.204 128.864 536.45 129.29C533 131.21 529.51 133.21 526.14 135.14L520.98 138.14C520.647 138.319 520.29 138.451 519.92 138.53L519.45 138.66C519.308 138.708 519.159 138.732 519.01 138.73C518.813 138.731 518.617 138.693 518.434 138.618C518.252 138.544 518.086 138.433 517.946 138.294C517.807 138.154 517.696 137.988 517.621 137.806C517.546 137.623 517.509 137.427 517.51 137.23V82.2899C517.509 82.0434 517.57 81.8006 517.686 81.583C517.801 81.3653 517.969 81.1796 518.174 81.0421C518.378 80.9047 518.614 80.8198 518.859 80.795C519.104 80.7702 519.352 80.8063 519.58 80.8999L520.15 81.1199C520.6 81.2849 521.038 81.4821 521.46 81.7099C523.2 82.6899 524.933 83.6899 526.66 84.7099C529.66 86.4499 532.85 88.2599 535.97 89.9899C536.828 90.4054 537.542 91.0686 538.02 91.8939C538.498 92.7192 538.717 93.6687 538.65 94.6199C538.58 103.82 538.6 113.2 538.62 122.28Z" fill="#EB9500"/>
</g>
<defs>
<clipPath id="clip0_32_9">
<rect width="998.3" height="157.24" fill="white"/>
</clipPath>
</defs>
</svg>
