<svg width="36" height="36" viewBox="0 0 36 36" fill="none" xmlns="http://www.w3.org/2000/svg">
<path fill-rule="evenodd" clip-rule="evenodd" d="M13.8922 14.4822C14.0164 14.2796 13.9152 14.0116 13.6836 13.9582C12.8738 13.7714 12.0302 13.6726 11.1636 13.6726C4.99813 13.6726 0 18.6707 0 24.8362C0 31.0017 4.99813 35.9999 11.1636 35.9999C12.0302 35.9999 12.8738 35.9011 13.6836 35.7143C13.9152 35.6608 14.0164 35.3929 13.8922 35.1903C12.1926 32.4167 11.1639 28.7966 11.1639 24.8363C11.1639 20.8759 12.1926 17.2558 13.8922 14.4822Z" fill="#E19937"/>
<path fill-rule="evenodd" clip-rule="evenodd" d="M22.1077 21.5175C21.9835 21.7202 22.0848 21.9881 22.3164 22.0416C23.1262 22.2284 23.9698 22.3271 24.8364 22.3271C31.0019 22.3271 36 17.329 36 11.1635C36 4.99801 31.0019 -0.000114004 24.8364 -0.000113465C23.9698 -0.000113389 23.1263 0.0986263 22.3164 0.285468C22.0848 0.338905 21.9836 0.606834 22.1078 0.809497C23.8075 3.58303 24.8361 7.20315 24.8361 11.1635C24.8361 15.1238 23.8074 18.744 22.1077 21.5175Z" fill="#E19937"/>
<path fill-rule="evenodd" clip-rule="evenodd" d="M14.4817 22.1039C14.279 21.9797 14.0111 22.0809 13.9577 22.3125C13.7708 23.1223 13.6721 23.9657 13.6721 24.8322C13.6721 30.9977 18.6702 35.9958 24.8358 35.9958C31.0013 35.9958 35.9994 30.9977 35.9994 24.8322C35.9994 23.9657 35.9007 23.1222 35.7138 22.3124C35.6604 22.0808 35.3925 21.9796 35.1898 22.1038C32.4162 23.8035 28.796 24.8322 24.8357 24.8322C20.8754 24.8322 17.2552 23.8035 14.4817 22.1039Z" fill="#E19937"/>
<path fill-rule="evenodd" clip-rule="evenodd" d="M21.5184 13.8958C21.7211 14.02 21.989 13.9187 22.0424 13.6871C22.2292 12.8775 22.3279 12.0342 22.3279 11.1678C22.3279 5.00228 17.3298 0.00415105 11.1642 0.00415185C4.99875 0.00415266 0.000618636 5.00228 0.000619445 11.1678C0.000619559 12.0344 0.0993707 12.878 0.286232 13.6878C0.339674 13.9195 0.607613 14.0207 0.810274 13.8965C3.58389 12.1966 7.20427 11.1677 11.1649 11.1677C15.125 11.1677 18.7449 12.1963 21.5184 13.8958Z" fill="#E19937"/>
</svg>
